<?xml version="1.0" encoding="UTF-8" standalone="no"?>
<!-- Uploaded to: SVG Repo, www.svgrepo.com, Generator: SVG Repo Mixer Tools -->

<svg
   width="800px"
   height="800px"
   viewBox="0 0 64 64"
   version="1.1"
   id="svg1"
   sodipodi:docname="icon.svg"
   inkscape:version="1.3 (0e150ed6c4, 2023-07-21)"
   xmlns:inkscape="http://www.inkscape.org/namespaces/inkscape"
   xmlns:sodipodi="http://sodipodi.sourceforge.net/DTD/sodipodi-0.dtd"
   xmlns="http://www.w3.org/2000/svg"
   xmlns:svg="http://www.w3.org/2000/svg">
  <defs
     id="defs1" />
  <sodipodi:namedview
     id="namedview1"
     pagecolor="#505050"
     bordercolor="#eeeeee"
     borderopacity="1"
     inkscape:showpageshadow="0"
     inkscape:pageopacity="0"
     inkscape:pagecheckerboard="0"
     inkscape:deskcolor="#505050"
     inkscape:zoom="1.46625"
     inkscape:cx="399.65899"
     inkscape:cy="400"
     inkscape:window-width="2560"
     inkscape:window-height="1369"
     inkscape:window-x="-8"
     inkscape:window-y="-8"
     inkscape:window-maximized="1"
     inkscape:current-layer="svg1" />
  <g
     id="a" />
  <g
     id="b" />
  <g
     id="c" />
  <g
     id="d" />
  <g
     id="e" />
  <g
     id="f" />
  <g
     id="g" />
  <g
     id="h" />
  <g
     id="i"
     transform="matrix(1.0336577,0,0,1.0336577,-1.0208036,-0.32193621)">
    <path
       transform="matrix(1.1,0,0,1.1,-3.25,-3.25)"
       d="M 57.96,11.65 H 50.6 c -0.87,0 -1.71,0.24 -2.45,0.68 l -9.64,5.83 -6.08,-2.83 c -0.27,-0.12 -0.58,-0.12 -0.84,0 l -6.08,2.83 -9.64,-5.83 C 15.13,11.88 14.28,11.65 13.42,11.65 H 6.04 C 4.91,11.65 4,12.57 4,13.69 v 9.58 c 0,0.93 0.38,1.84 1.05,2.49 0.03,0.03 0.07,0.07 0.11,0.09 l 8.68,6.28 -1.67,11.83 c -0.13,1.05 0.43,2.06 1.39,2.5 l 12.27,5.72 c 0.51,0.24 1.09,0.23 1.59,-0.04 0.5,-0.26 0.84,-0.73 0.94,-1.29 l 0.74,-4.41 1.48,0.96 c 0.86,0.56 1.98,0.56 2.84,0 l 1.48,-0.96 0.74,4.41 c 0.09,0.56 0.44,1.03 0.94,1.29 0.26,0.14 0.55,0.21 0.83,0.21 0.26,0 0.52,-0.06 0.76,-0.17 l 12.27,-5.72 c 0.96,-0.45 1.52,-1.45 1.39,-2.52 l -1.67,-11.81 8.68,-6.28 c 0,0 0.08,-0.06 0.11,-0.09 C 59.62,25.11 60,24.2 60,23.27 v -9.58 c 0,-1.13 -0.92,-2.04 -2.04,-2.04 z M 37.11,47.55 33.1,23.77 47.77,14.9 37.12,47.55 Z m -10.22,0 L 16.24,14.9 30.9,23.77 Z M 32,17.34 36.44,19.41 32,22.1 27.56,19.41 Z M 6.4,24.28 C 6.14,24.01 6,23.64 6,23.27 l 0.04,-9.62 h 7.36 c 0.12,0 0.23,0.08 0.35,0.1 l 6.83,20.93 z m 7.75,19.95 1.52,-10.74 6,4.5 3.87,11.85 -11.13,-5.19 c -0.17,-0.08 -0.27,-0.26 -0.25,-0.43 z m 18.17,1.51 c -0.2,0.13 -0.46,0.13 -0.65,0 L 29.46,44.3 31.99,29.28 34.52,44.3 32.31,45.74 Z M 49.59,44.66 38.46,49.85 42.33,38 l 6,-4.5 1.51,10.72 c 0.02,0.19 -0.08,0.37 -0.25,0.45 z M 58,23.27 c 0,0.37 -0.15,0.74 -0.4,1.01 l -14.19,10.4 6.83,-20.93 c 0.12,-0.02 0.23,-0.1 0.35,-0.1 L 58,13.69 Z"
       id="path1" />
  </g>
  <g
     id="v" />
  <g
     id="w" />
  <g
     id="x" />
  <g
     id="y" />
  <g
     id="a`" />
  <g
     id="aa" />
  <g
     id="ab" />
  <g
     id="ac" />
  <g
     id="ad" />
  <g
     id="ae" />
  <g
     id="af" />
  <g
     id="ag" />
  <g
     id="ah" />
  <g
     id="ai" />
  <g
     id="aj" />
  <g
     id="ak" />
  <g
     id="al" />
  <g
     id="am" />
  <g
     id="an" />
  <g
     id="ao" />
  <g
     id="ap" />
  <g
     id="aq" />
  <g
     id="ar" />
  <g
     id="as" />
  <g
     id="at" />
  <g
     id="au" />
  <g
     id="av" />
  <g
     id="aw" />
  <g
     id="ax" />
  <g
     id="ay" />
  <g
     id="b`" />
  <g
     id="ba" />
  <g
     id="bb" />
  <g
     id="bc" />
  <g
     id="bd" />
  <g
     id="be" />
  <g
     id="bf" />
  <g
     id="bg" />
  <g
     id="bh" />
  <g
     id="bi" />
  <g
     id="bj" />
</svg>
